<svg width="1520" height="401" viewBox="0 0 1520 401" fill="none" xmlns="http://www.w3.org/2000/svg">
<path d="M884.651 112.578L972.093 80.0139L884.651 45.5893V0L1034.42 60.4756V97.6914L884.651 158.167V112.578ZM57.6744 401C26.0465 401 0 385.183 0 349.828V347.968C0 305.169 37.2093 290.283 82.7907 290.283H104.186V281.91C104.186 264.232 96.7442 253.998 78.1395 253.998C61.3954 253.998 53.0233 263.302 52.093 276.327H5.5814C9.30233 237.251 40 218.643 80.9302 218.643C122.791 218.643 153.488 236.32 153.488 280.049V397.278H106.047V376.81C96.7442 389.835 80.9302 401 57.6744 401ZM104.186 338.664V321.916H84.6512C60.4651 321.916 48.3721 328.429 48.3721 344.246V346.107C48.3721 358.202 55.814 366.575 72.5581 366.575C89.3023 366.575 104.186 357.271 104.186 338.664ZM264.186 401C215.814 401 180.465 371.227 180.465 311.682V308.891C180.465 249.346 217.674 217.712 264.186 217.712C304.186 217.712 336.744 238.181 340.465 283.77H293.954C291.163 267.023 281.86 255.858 265.116 255.858C244.651 255.858 229.767 272.606 229.767 307.03V312.613C229.767 347.967 242.791 363.784 265.116 363.784C281.86 363.784 293.953 351.689 296.744 332.151H341.395C338.605 372.158 311.628 401 264.186 401ZM446.512 401C398.14 401 362.791 371.227 362.791 311.682V308.891C362.791 249.346 400 217.712 446.512 217.712C486.512 217.712 519.07 238.181 522.791 283.77H476.279C473.488 267.023 464.186 255.858 447.442 255.858C426.977 255.858 412.093 272.606 412.093 307.03V312.613C412.093 347.967 425.116 363.784 447.442 363.784C464.186 363.784 476.279 351.689 479.07 332.151H523.721C520.93 372.158 493.954 401 446.512 401ZM629.767 401C579.535 401 545.116 371.227 545.116 312.613V308.891C545.116 250.276 581.395 217.712 628.837 217.712C672.558 217.712 708.837 241.903 708.837 300.517V321.916H595.349C597.209 353.55 611.163 365.645 631.628 365.645C650.233 365.645 660.465 355.411 664.186 343.316H709.768C703.256 375.879 676.279 401 629.767 401ZM595.349 289.353H661.395C660.465 263.302 648.372 252.137 628.837 252.137C613.023 253.067 599.07 261.441 595.349 289.353ZM738.605 222.364H787.907V248.415C796.279 231.668 813.954 218.643 840.93 218.643C872.558 218.643 893.954 238.181 893.954 280.049V397.278H844.651V287.492C844.651 267.023 836.279 257.719 818.605 257.719C801.861 257.719 787.907 267.954 787.907 290.283V397.278H738.605V222.364ZM984.186 169.332V222.364H1017.67V258.65H984.186V341.455C984.186 354.48 989.767 360.993 1001.86 360.993C1009.3 360.993 1013.95 360.063 1018.6 358.202V396.348C1013.02 398.209 1002.79 400.07 990.698 400.07C952.558 400.07 934.884 382.392 934.884 347.037V258.65H914.419V222.364H934.884V189.8L984.186 169.332ZM1201.86 397.278H1152.56V371.227C1144.19 387.975 1127.44 401 1101.4 401C1069.77 401 1046.51 381.462 1046.51 340.524V222.364H1095.81V334.012C1095.81 354.48 1104.19 363.784 1120.93 363.784C1137.67 363.784 1151.63 352.619 1151.63 331.22V223.295H1200.93V397.278H1201.86ZM1238.14 222.364H1287.44V254.928C1297.67 231.668 1314.42 220.503 1340.47 220.503V268.884C1306.98 268.884 1287.44 279.118 1287.44 307.961V398.209H1238.14V222.364ZM1440 401C1389.77 401 1355.35 371.227 1355.35 312.613V308.891C1355.35 250.276 1391.63 217.712 1439.07 217.712C1482.79 217.712 1519.07 241.903 1519.07 300.517V321.916H1405.58C1407.44 353.55 1421.4 365.645 1441.86 365.645C1460.47 365.645 1470.7 355.411 1474.42 343.316H1520C1512.56 375.879 1485.58 401 1440 401ZM1404.65 289.353H1470.7C1469.77 263.302 1457.67 252.137 1438.14 252.137C1423.26 253.067 1409.3 261.441 1404.65 289.353Z" fill="white"/>
</svg>
