<svg width="1069" height="193" viewBox="0 0 1069 193" fill="none" xmlns="http://www.w3.org/2000/svg">
<path d="M0 189.167H36.3075V113.484H140.532V83.8347H36.3075V33.1716H153.79V3.43142H0V189.167ZM221.608 191.838C242.284 191.838 259.696 186.273 271.815 175.366C283.934 164.459 291.007 148.03 291.007 126.038V3.43142H253.811V125.238C253.811 149.902 240.504 161.565 221.013 161.565C203.601 161.565 191.334 153.64 179.413 139.839L155.471 161.831C170.474 181.241 195.348 192.527 221.608 191.838ZM464.979 192.372C523.398 193.628 571.89 152.025 573.285 99.4465C573.311 98.3988 573.321 97.3494 573.311 96.3V95.7646C573.311 43.4988 529.039 0.27063 465.574 0.27063C402.108 0.27063 357.193 44.0342 357.193 96.3V96.8336C357.193 149.099 401.465 192.372 464.979 192.372ZM465.574 162.367C424.518 162.367 395.281 132.404 395.281 96.3V95.7646C395.281 59.7047 423.923 30.2331 464.979 30.2331C506.036 30.2331 535.221 60.2383 535.221 96.3V96.8336C535.221 132.94 506.581 162.367 465.574 162.367ZM642.71 189.078H679.02V124.436H724.478L775.329 189.167H818.117L762.27 118.87C791.207 111.437 811.736 93.1392 811.736 62.5986V62.0632C812.153 47.1949 805.998 32.7838 794.62 21.9959C781.314 10.3328 760.934 3.43142 734.964 3.43142H642.71V189.167V189.078ZM679.02 95.5867V33.2605H731.848C758.758 33.2605 774.687 44.1231 774.687 64.0234V64.557C774.687 83.3882 758.165 95.7201 732.195 95.7201L679.02 95.5867ZM881.829 189.078H958.847C1023.8 189.078 1068.66 148.477 1068.66 96.211V95.6756C1068.66 43.4098 1023.8 3.34248 958.847 3.34248H881.779V189.167L881.829 189.078ZM918.138 159.384V33.1716H958.897C1002.28 33.1716 1030.62 59.8825 1030.62 96.3V96.8336C1030.62 133.207 1002.28 159.473 958.897 159.473L918.138 159.384Z" fill="black"/>
</svg>
