<svg width="1560" height="612" viewBox="0 0 1560 612" fill="none" xmlns="http://www.w3.org/2000/svg">
<path d="M1517.01 50.5957H1521.87V16.6342L1538.51 40.8925H1539.2L1555.15 16.6342V50.5957H1560V8.31714H1555.15L1538.51 33.2684L1521.87 8.31714H1517.01V50.5957ZM1488.59 50.5957H1493.44V13.1688H1507.31V8.31714H1474.72V13.1688H1488.59V50.5957Z" fill="black"/>
<path d="M6.93311 293.871H57.5464V176.045H203.84V129.608H58.2398V51.2888H223.253V4.85164H6.93311V293.871ZM317.546 298.029C346.666 298.029 370.933 289.019 387.573 272.385C404.213 255.751 414.613 230.106 414.613 195.452V4.85164H362.613V194.759C362.613 232.879 343.893 251.592 316.853 251.592C292.586 251.592 275.253 239.117 258.613 217.631L225.333 251.592C244.053 277.93 273.173 298.029 317.546 298.029ZM658.666 299.416C747.413 299.416 810.506 231.493 810.506 149.708V149.015C810.506 67.2299 748.8 0 659.36 0C570.613 0 507.52 67.923 507.52 149.708V150.401C507.52 231.493 569.92 299.416 658.666 299.416ZM659.36 252.285C601.813 252.285 560.906 205.848 560.906 149.708V149.015C560.906 92.8743 601.12 47.1302 658.666 47.1302C716.213 47.1302 757.12 93.5674 757.12 149.708V150.401C757.12 206.541 716.906 252.285 659.36 252.285ZM908.266 293.871H958.88V193.373H1021.97H1022.67L1094.08 293.871H1154.4L1076.05 184.362C1116.27 172.58 1145.39 144.163 1145.39 97.0328V96.3397C1145.39 71.3884 1136.37 49.9026 1121.12 33.9615C1102.4 15.9411 1073.97 4.85164 1037.23 4.85164H908.266V293.871ZM958.88 148.322V51.2888H1033.07C1070.51 51.2888 1093.39 67.923 1093.39 99.1121V99.8052C1093.39 128.915 1070.51 148.322 1033.76 148.322H958.88ZM1243.15 293.871H1351.31C1442.13 293.871 1505.23 230.8 1505.23 149.015V148.322C1505.23 67.2299 1442.13 4.85164 1351.31 4.85164H1243.15V293.871ZM1293.76 248.127V51.2888H1350.61C1411.63 51.2888 1451.15 92.8743 1451.15 149.708V150.401C1451.15 207.234 1411.63 248.127 1350.61 248.127H1293.76Z" fill="black"/>
<path d="M6.93311 380.507H29.1198C36.0531 380.507 42.2931 381.894 47.8398 383.973C53.3864 386.052 57.5464 388.824 61.0131 392.983C64.4798 396.448 67.2531 401.3 69.3331 406.152C71.4131 411.003 72.1064 416.548 72.1064 422.786V424.172C72.1064 430.41 71.4131 435.955 69.3331 440.806C67.9464 446.351 65.1731 450.51 61.7064 454.668C58.2398 458.827 53.3864 461.599 48.5331 463.678C42.9864 465.758 36.7464 467.144 29.1198 467.144H6.93311V380.507ZM29.1198 461.599C35.3598 461.599 40.9064 460.906 45.0664 458.827C49.9198 456.747 53.3864 454.668 56.1598 451.203C58.9331 447.737 61.7064 444.272 63.0931 439.42C64.4798 434.568 65.1731 429.717 65.1731 424.172V422.786C65.1731 417.241 64.4798 412.39 63.0931 408.231C61.7064 404.072 59.6264 399.914 56.1598 396.448C53.3864 392.983 49.2264 390.904 45.0664 388.824C40.2131 386.745 35.3598 386.052 28.4264 386.052H13.8664V460.906H29.1198V461.599Z" fill="black"/>
<path d="M114.4 467.837C109.547 467.837 105.387 467.144 101.92 465.758C98.4535 464.371 94.9869 462.292 92.2136 459.52C89.4402 456.747 87.3602 453.282 85.9735 449.123C84.5869 444.965 83.8936 440.806 83.8936 435.955V435.262C83.8936 430.41 84.5869 426.251 85.9735 422.093C87.3602 417.934 89.4402 414.469 92.2136 411.696C94.9869 408.924 97.7602 406.845 101.227 404.765C104.694 403.379 108.854 402.686 113.014 402.686C116.48 402.686 120.64 403.379 123.414 404.765C126.88 406.152 129.654 408.231 132.427 410.31C135.2 412.389 136.587 415.855 138.667 420.013C140.054 424.172 140.747 428.331 140.747 433.875V435.955H90.8269C90.8269 444.272 92.9069 451.203 97.0669 455.361C101.227 460.213 106.774 462.292 114.4 462.292C119.947 462.292 124.107 460.906 127.574 458.827C131.04 456.747 133.12 453.282 134.507 449.123H140.747C139.36 455.361 136.587 459.52 131.734 462.985C126.88 466.451 121.334 467.837 114.4 467.837ZM134.507 430.41C134.507 422.786 132.427 417.241 128.267 413.776C124.8 410.31 119.254 408.231 113.707 408.231C110.934 408.231 108.16 408.924 105.387 409.617C102.614 410.31 100.534 412.389 98.4535 413.776C96.3735 415.855 94.9869 417.934 93.6002 420.707C92.2136 423.479 91.5202 426.251 91.5202 429.717H134.507V430.41Z" fill="black"/>
<path d="M175.413 467.837C167.786 467.837 162.24 465.758 158.08 462.292C153.92 458.827 151.84 453.975 151.146 447.737H157.386C158.08 451.896 159.466 455.361 162.24 458.134C165.013 460.906 169.173 462.292 175.413 462.292C180.96 462.292 184.426 460.906 187.2 458.827C189.973 456.747 191.36 453.282 191.36 449.816C191.36 447.737 191.36 446.351 190.666 444.965C189.973 443.579 189.28 442.192 187.893 441.499C186.506 440.806 185.12 439.42 183.04 439.42C180.96 438.727 178.186 438.034 175.413 437.341C171.253 436.648 168.48 435.955 165.706 435.262C162.933 434.568 160.853 433.182 158.773 431.796C156.693 430.41 156 429.024 154.613 426.944C153.92 424.865 153.226 422.786 153.226 420.013C153.226 417.241 153.92 415.162 155.306 413.083C156.693 411.003 158.08 408.924 160.16 407.538C162.24 406.152 164.32 404.765 167.093 404.072C169.866 403.379 171.946 402.686 174.72 402.686C177.493 402.686 180.266 402.686 182.346 403.379C185.12 404.072 187.2 404.765 189.28 406.152C191.36 407.538 192.746 409.617 194.133 411.696C195.52 413.776 196.213 416.548 196.906 419.32H190.666C189.973 415.162 187.893 412.389 185.813 410.31C183.04 408.231 179.573 407.538 174.72 407.538C170.56 407.538 167.093 408.231 164.32 410.31C160.853 413.776 159.466 415.855 159.466 419.32C159.466 421.4 159.466 422.786 160.16 424.172C160.853 425.558 161.546 426.251 162.933 427.637C164.32 428.331 165.706 429.024 168.48 429.717C170.56 430.41 173.333 431.103 176.8 431.796C180.266 432.489 183.04 433.182 185.813 433.875C188.586 434.568 190.666 435.955 192.746 437.341C194.826 438.727 196.213 440.113 196.906 442.192C197.6 444.272 198.293 447.044 198.293 449.816C198.293 455.361 196.213 459.52 192.746 462.985C188.586 466.451 183.04 467.837 175.413 467.837Z" fill="black"/>
<path d="M217.013 390.211C215.627 390.211 214.933 389.517 213.547 388.824C212.853 388.131 212.16 386.745 212.16 385.359C212.16 383.973 212.853 383.28 213.547 381.893C214.24 381.2 215.627 380.507 217.013 380.507C218.4 380.507 219.093 381.2 220.48 381.893C221.173 382.587 221.867 383.973 221.867 385.359C221.867 386.745 221.173 387.438 220.48 388.824C219.093 390.211 217.707 390.211 217.013 390.211ZM213.547 404.072H219.787V467.144H213.547V404.072Z" fill="black"/>
<path d="M265.547 489.323C260.693 489.323 257.227 488.63 253.76 487.937C250.293 487.243 247.52 485.164 245.44 483.778C243.36 482.392 241.28 480.313 239.893 477.54C238.507 475.461 237.813 472.689 237.12 469.916H243.36C244.053 474.075 246.133 477.54 249.6 479.619C253.067 482.392 257.92 483.085 264.853 483.085C268.32 483.085 271.093 482.392 273.867 481.699C276.64 481.006 279.413 479.619 280.8 478.233C282.187 476.847 284.267 474.075 285.653 471.302C287.04 468.53 287.04 465.064 287.04 461.599V448.43C286.347 450.51 284.96 451.896 283.573 453.975C282.187 456.054 280.107 457.44 278.027 458.827C275.947 460.213 273.867 461.599 271.093 462.292C268.32 462.985 265.547 463.678 262.773 463.678C258.613 463.678 255.147 462.985 251.68 461.599C248.213 460.213 245.44 458.134 242.667 455.361C239.893 452.589 237.813 449.816 236.427 445.658C236.427 443.579 235.733 439.42 235.733 434.568V433.875C235.733 429.717 236.427 425.558 237.813 421.4C239.2 417.934 241.28 414.469 244.053 411.696C246.827 408.924 249.6 406.845 253.067 405.459C256.533 404.072 260.693 403.379 264.853 403.379C268.32 403.379 271.093 404.072 273.173 404.766C275.947 405.459 278.027 406.845 279.413 408.231C281.493 409.617 282.88 411.003 284.267 413.083C285.653 415.162 287.04 416.548 287.733 418.627V404.766H293.973V463.678C293.973 468.53 293.28 472.688 291.893 475.461C290.507 478.926 288.427 481.699 285.653 483.778C282.88 485.857 280.107 487.937 276.64 488.63C273.173 488.63 269.707 489.323 265.547 489.323ZM264.853 459.52C268.32 459.52 271.093 458.827 273.867 458.134C276.64 456.747 279.413 455.361 281.493 453.282C283.573 451.203 285.653 448.43 286.347 445.658C287.733 442.886 288.427 439.42 288.427 435.262V434.568C288.427 430.41 287.733 426.944 287.04 424.172C285.653 421.4 284.267 418.627 282.187 416.548C280.107 414.469 278.027 413.083 275.253 411.696C272.48 410.31 269.707 410.31 266.24 410.31C262.773 410.31 260 411.003 257.227 412.39C254.453 413.776 251.68 415.162 249.6 417.241C247.52 419.32 246.133 422.093 244.747 424.865C242.667 426.251 242.667 429.717 242.667 433.875V434.568C242.667 438.727 243.36 442.192 244.747 444.965C246.133 447.737 247.52 450.51 249.6 452.589C251.68 454.668 253.76 456.054 256.533 457.44C258.613 458.827 261.387 459.52 264.853 459.52Z" fill="black"/>
<path d="M314.773 404.072H321.013V415.855C321.707 414.469 323.093 412.389 324.48 411.003C325.867 409.617 327.253 408.231 329.333 406.845C331.413 405.459 333.493 404.765 335.573 404.072C337.653 403.379 340.427 402.686 343.2 402.686C346.667 402.686 349.44 403.379 352.213 404.072C354.987 404.765 357.067 406.152 359.147 408.231C361.227 410.31 362.613 413.083 364 415.855C365.387 419.32 365.387 422.786 365.387 427.637V466.451H359.147V427.637C359.147 420.707 357.76 415.855 354.293 413.083C351.52 410.31 346.667 408.231 341.12 408.231C338.347 408.231 335.573 408.924 333.493 409.617C330.72 410.31 328.64 411.696 326.56 413.776C324.48 415.162 323.093 417.241 321.707 420.013C320.32 422.786 319.627 425.558 319.627 429.024V467.144H313.387V404.072H314.773Z" fill="black"/>
<path d="M432.64 467.837C429.173 467.837 426.4 467.144 424.32 466.451C422.24 465.758 419.467 464.371 417.387 462.985C415.307 461.599 413.92 459.52 413.227 457.441C411.84 455.361 411.84 452.589 411.84 449.817C411.84 446.351 412.533 442.886 413.92 440.806C415.307 438.034 417.387 436.648 420.16 435.262C422.933 433.875 425.707 432.489 429.867 431.796C433.333 431.103 437.493 431.103 440.96 431.103H454.133V425.558C454.133 419.32 452.747 415.162 450.667 412.39C447.893 409.617 444.427 408.231 438.88 408.231C434.027 408.231 429.867 409.617 427.093 411.696C423.627 413.776 422.24 417.241 421.547 422.093H415.307C415.307 418.627 416.693 415.855 418.08 413.776C419.467 411.696 421.547 409.617 423.627 408.231C425.707 406.845 428.48 405.459 431.253 404.766C434.027 404.072 436.8 403.379 439.573 403.379C443.04 403.379 445.813 404.072 448.587 404.766C451.36 405.459 453.44 406.845 455.52 408.924C457.6 411.003 458.987 413.083 460.373 415.855C461.76 418.627 461.76 422.093 461.76 426.251V467.837H455.52V457.441C453.44 460.213 450.667 462.985 447.2 465.065C441.653 466.451 437.493 467.837 432.64 467.837ZM432.64 462.292C435.413 462.292 438.187 461.599 440.96 460.906C443.733 460.213 445.813 458.827 447.893 457.441C449.973 456.054 451.36 453.975 452.053 452.589C453.44 450.51 453.44 448.43 453.44 446.351V435.955H440.267C436.8 435.955 434.027 435.955 431.253 436.648C428.48 437.341 425.707 438.034 423.627 438.727C421.547 439.42 420.16 441.499 418.773 442.886C417.387 444.965 416.693 447.044 416.693 449.817C416.693 453.975 418.08 456.747 420.16 459.52C423.627 461.599 427.787 462.292 432.64 462.292Z" fill="black"/>
<path d="M479.787 404.072H486.027V415.855C486.72 414.469 488.107 412.389 489.493 411.003C490.88 409.617 492.267 408.231 494.347 406.845C496.427 405.459 498.507 404.765 500.587 404.072C502.667 403.379 505.44 402.686 508.213 402.686C511.68 402.686 514.453 403.379 517.227 404.072C520 404.765 522.08 406.152 524.16 408.231C526.24 410.31 527.627 413.083 529.013 415.855C530.4 419.32 530.4 422.786 530.4 427.637V466.451H524.16V427.637C524.16 420.707 522.773 415.855 519.307 413.083C516.533 410.31 511.68 408.231 506.133 408.231C503.36 408.231 500.587 408.924 498.507 409.617C495.733 410.31 493.653 411.696 491.573 413.776C489.493 415.855 488.107 417.241 486.72 420.013C485.333 422.786 484.64 425.558 484.64 429.024V467.144H478.4V404.072H479.787Z" fill="black"/>
<path d="M574.08 467.837C569.92 467.837 566.453 467.144 562.987 465.758C559.52 464.371 556.747 462.292 553.973 459.52C551.2 456.747 549.12 453.282 547.733 449.817C546.347 445.658 545.653 441.499 545.653 436.648V435.955C545.653 431.103 546.347 426.944 547.733 422.786C549.12 418.627 551.2 415.162 553.973 412.39C556.747 409.617 559.52 407.538 562.987 406.152C566.453 404.766 570.613 404.072 574.773 404.072C578.24 404.072 581.013 404.766 583.093 405.459C585.867 406.152 587.947 407.538 589.333 408.924C591.413 410.31 592.8 411.696 594.187 413.776C595.573 415.855 596.96 417.241 597.653 419.32V374.963H603.893V467.837H597.653V453.282C596.96 455.361 595.573 457.44 594.187 458.827C592.8 460.906 590.72 462.292 588.64 463.678C586.56 465.065 584.48 466.451 581.707 467.144C579.627 467.144 576.853 467.837 574.08 467.837ZM574.773 462.292C578.24 462.292 581.013 461.599 583.787 460.213C586.56 458.827 589.333 457.44 591.413 455.361C593.493 453.282 595.573 450.51 596.267 447.044C596.96 443.579 598.347 440.113 598.347 435.262V434.568C598.347 430.41 597.653 426.251 596.96 423.479C595.573 420.014 594.187 417.241 592.107 415.162C590.027 413.083 587.947 411.003 585.173 410.31C582.4 408.924 579.627 408.924 576.16 408.924C572.693 408.924 569.92 409.617 567.147 411.003C564.373 412.39 561.6 413.776 559.52 416.548C557.44 418.627 556.053 421.4 554.667 424.865C553.28 428.331 552.587 431.796 552.587 435.955V436.648C552.587 440.806 553.28 444.965 554.667 447.737C556.053 451.203 557.44 453.975 559.52 456.054C561.6 458.134 563.68 460.213 566.453 460.906C568.533 461.599 571.307 462.292 574.773 462.292Z" fill="black"/>
<path d="M656.587 380.507H663.52V466.451H656.587V380.507Z" fill="black"/>
<path d="M685.707 404.072H691.947V415.855C692.64 414.469 694.027 412.389 695.413 411.003C696.8 409.617 698.187 408.231 700.267 406.845C702.347 405.459 704.427 404.765 706.507 404.072C708.587 403.379 711.36 402.686 714.133 402.686C717.6 402.686 720.373 403.379 723.147 404.072C725.92 404.765 728 406.152 730.08 408.231C732.16 410.31 733.547 413.083 734.933 415.855C736.32 419.32 736.32 422.786 736.32 427.637V466.451H730.08V427.637C730.08 420.707 728.693 415.855 725.227 413.083C722.453 410.31 717.6 408.231 712.053 408.231C709.28 408.231 706.507 408.924 704.427 409.617C701.653 410.31 699.573 411.696 697.493 413.776C695.413 415.162 694.027 417.241 692.64 420.013C691.253 422.786 690.56 425.558 690.56 429.024V467.144H684.32V404.072H685.707Z" fill="black"/>
<path d="M756.427 404.072H762.667V415.855C763.36 414.469 764.747 412.389 766.133 411.003C767.52 409.617 768.907 408.231 770.987 406.845C773.067 405.459 775.147 404.765 777.227 404.072C779.307 403.379 782.08 402.686 784.853 402.686C788.32 402.686 791.093 403.379 793.867 404.072C796.64 404.765 798.72 406.152 800.8 408.231C802.88 410.31 804.267 413.083 805.653 415.855C807.04 419.32 807.04 422.786 807.04 427.637V466.451H800.8V427.637C800.8 420.707 799.413 415.855 795.947 413.083C793.173 410.31 788.32 408.231 782.773 408.231C780 408.231 777.227 408.924 775.147 409.617C772.373 410.31 770.293 411.696 768.213 413.776C766.133 415.162 764.747 417.241 763.36 420.013C761.973 422.786 761.28 425.558 761.28 429.024V467.144H755.04V404.072H756.427Z" fill="black"/>
<path d="M852.8 467.837C848.64 467.837 844.48 467.144 841.013 465.758C837.547 464.371 834.08 462.292 831.307 458.827C828.533 456.054 826.453 452.589 825.067 448.43C823.68 444.272 822.987 440.113 822.987 435.262V434.568C822.987 429.717 823.68 425.558 825.067 421.4C826.453 417.241 828.533 413.776 831.307 411.003C834.08 408.231 837.547 406.152 841.013 404.765C844.48 403.379 848.64 402.686 852.8 402.686C856.96 402.686 861.12 403.379 864.587 404.765C868.053 406.152 871.52 408.231 874.293 411.003C877.067 413.776 879.147 417.241 880.533 421.4C881.92 425.558 882.613 429.717 882.613 434.568V435.262C882.613 440.113 881.92 444.272 880.533 448.43C879.147 452.589 877.067 456.054 874.293 458.827C871.52 461.599 868.053 463.678 864.587 465.064C861.12 467.144 856.96 467.837 852.8 467.837ZM852.8 462.292C856.267 462.292 859.04 461.599 862.507 460.213C865.28 458.827 868.053 457.44 870.133 454.668C872.213 452.589 873.6 449.816 874.987 446.351C876.373 442.886 877.067 439.42 877.067 435.262V434.568C877.067 430.41 876.373 426.944 874.987 423.479C873.6 420.013 872.213 417.241 870.133 415.162C868.053 413.083 865.28 411.003 862.507 409.617C859.733 408.231 856.267 407.538 852.8 407.538C849.333 407.538 846.56 408.231 843.093 409.617C840.32 411.003 837.547 412.389 835.467 415.162C833.387 417.241 831.307 420.013 830.613 423.479C829.227 426.944 828.533 430.41 828.533 434.568V435.262C828.533 439.42 829.227 442.886 830.613 446.351C832 449.816 833.387 452.589 835.467 454.668C837.547 456.747 840.32 458.827 843.093 460.213C845.867 461.599 849.333 462.292 852.8 462.292Z" fill="black"/>
<path d="M890.24 404.072H897.173L918.667 460.906L940.16 404.072H946.4L922.827 467.144H914.507L890.24 404.072Z" fill="black"/>
<path d="M975.52 467.837C972.053 467.837 969.28 467.144 967.2 466.451C965.12 465.758 962.347 464.371 960.267 462.985C958.187 461.599 956.8 459.52 956.107 457.441C955.413 455.361 954.72 452.589 954.72 449.817C954.72 446.351 955.413 442.886 956.8 440.806C958.187 438.034 960.267 436.648 963.04 435.262C965.813 433.875 968.587 432.489 972.747 431.796C976.213 431.103 980.373 431.103 983.84 431.103H997.013V425.558C997.013 419.32 995.627 415.162 993.547 412.39C990.773 409.617 987.307 408.231 981.76 408.231C976.907 408.231 972.747 409.617 969.973 411.696C966.507 413.776 965.12 417.241 964.427 422.093H956.8C956.8 418.627 958.187 415.855 959.573 413.776C960.96 411.696 963.04 409.617 965.12 408.231C967.2 406.845 969.973 405.459 972.747 404.766C975.52 404.072 978.293 403.379 981.067 403.379C984.533 403.379 987.307 404.072 990.08 404.766C992.853 405.459 994.933 406.845 997.013 408.924C999.093 411.003 1000.48 413.083 1001.87 415.855C1003.25 418.627 1003.25 422.093 1003.25 426.251V467.837H997.013V457.441C994.933 460.213 992.16 462.985 988.693 465.065C985.227 466.451 980.373 467.837 975.52 467.837ZM975.52 462.292C978.293 462.292 981.067 461.599 983.84 460.906C986.613 460.213 988.693 458.827 990.773 457.441C992.853 456.054 994.24 453.975 994.933 452.589C996.32 450.51 996.32 448.43 996.32 446.351V435.955H983.147C979.68 435.955 976.907 435.955 974.133 436.648C971.36 437.341 968.587 438.034 966.507 438.727C964.427 439.42 963.04 441.499 961.653 442.886C960.267 444.965 959.573 447.044 959.573 449.817C959.573 453.975 960.96 456.747 963.04 459.52C966.507 461.599 970.667 462.292 975.52 462.292Z" fill="black"/>
<path d="M1040.69 467.837C1035.84 467.837 1031.68 466.451 1028.91 463.678C1026.13 460.906 1024.75 456.747 1024.75 451.896V409.617H1015.73V404.072H1024.75V389.518H1030.99V404.072H1047.63V409.617H1030.99V451.203C1030.99 455.361 1031.68 458.134 1033.76 459.52C1035.15 461.599 1037.92 462.292 1040.69 462.292C1042.08 462.292 1043.47 462.292 1044.85 461.599C1046.24 461.599 1047.63 460.906 1048.32 460.906V466.451C1046.93 467.144 1046.24 467.144 1044.85 467.144C1044.16 467.837 1042.77 467.837 1040.69 467.837Z" fill="black"/>
<path d="M1067.04 390.211C1065.65 390.211 1064.96 389.517 1063.57 388.824C1062.88 388.131 1062.19 386.745 1062.19 385.359C1062.19 383.973 1062.88 383.28 1063.57 381.893C1064.27 381.2 1065.65 380.507 1067.04 380.507C1068.43 380.507 1069.12 381.2 1070.51 381.893C1071.2 382.587 1071.89 383.973 1071.89 385.359C1071.89 386.745 1071.2 387.438 1070.51 388.824C1069.81 390.211 1068.43 390.211 1067.04 390.211ZM1064.27 404.072H1070.51V467.144H1064.27V404.072Z" fill="black"/>
<path d="M1116.96 467.837C1112.8 467.837 1108.64 467.144 1105.17 465.758C1101.71 464.371 1098.24 462.292 1095.47 458.827C1092.69 456.054 1090.61 452.589 1089.23 448.43C1087.84 444.272 1087.15 440.113 1087.15 435.262V434.568C1087.15 429.717 1087.84 425.558 1089.23 421.4C1090.61 417.241 1092.69 413.776 1095.47 411.003C1098.24 408.231 1101.71 406.152 1105.17 404.765C1108.64 403.379 1112.8 402.686 1116.96 402.686C1121.12 402.686 1125.28 403.379 1128.75 404.765C1132.21 406.152 1135.68 408.231 1138.45 411.003C1141.23 413.776 1143.31 417.241 1144.69 421.4C1146.08 425.558 1146.77 429.717 1146.77 434.568V435.262C1146.77 440.113 1146.08 444.272 1144.69 448.43C1143.31 452.589 1141.23 456.054 1138.45 458.827C1135.68 461.599 1132.21 463.678 1128.75 465.064C1124.59 467.144 1121.12 467.837 1116.96 467.837ZM1116.96 462.292C1120.43 462.292 1123.2 461.599 1126.67 460.213C1129.44 458.827 1132.21 457.44 1134.29 454.668C1136.37 452.589 1137.76 449.816 1139.15 446.351C1140.53 442.886 1141.23 439.42 1141.23 435.262V434.568C1141.23 430.41 1140.53 426.944 1139.15 423.479C1137.76 420.013 1136.37 417.241 1134.29 415.162C1132.21 413.083 1129.44 411.003 1126.67 409.617C1123.89 408.231 1120.43 407.538 1116.96 407.538C1113.49 407.538 1110.72 408.231 1107.25 409.617C1104.48 411.003 1101.71 412.389 1099.63 415.162C1097.55 417.241 1095.47 420.013 1094.77 423.479C1093.39 426.944 1092.69 430.41 1092.69 434.568V435.262C1092.69 439.42 1093.39 442.886 1094.77 446.351C1096.16 449.816 1097.55 452.589 1099.63 454.668C1101.71 456.747 1104.48 458.827 1107.25 460.213C1110.03 461.599 1113.49 462.292 1116.96 462.292Z" fill="black"/>
<path d="M1162.72 404.072H1168.96V415.855C1169.65 414.469 1171.04 412.389 1172.43 411.003C1173.81 409.617 1175.2 408.231 1177.28 406.845C1179.36 405.459 1181.44 404.765 1183.52 404.072C1185.6 403.379 1188.37 402.686 1191.15 402.686C1194.61 402.686 1197.39 403.379 1200.16 404.072C1202.93 404.765 1205.01 406.152 1207.09 408.231C1209.17 410.31 1210.56 413.083 1211.95 415.855C1213.33 419.32 1213.33 422.786 1213.33 427.637V466.451H1207.09V427.637C1207.09 420.707 1205.71 415.855 1202.24 413.083C1199.47 410.31 1194.61 408.231 1189.07 408.231C1186.29 408.231 1183.52 408.924 1181.44 409.617C1178.67 410.31 1176.59 411.696 1174.51 413.776C1172.43 415.855 1171.04 417.241 1169.65 420.013C1168.27 422.786 1167.57 425.558 1167.57 429.024V467.144H1161.33V404.072H1162.72Z" fill="black"/>
<path d="M1266.03 409.617H1256.32V404.072H1266.03V392.983C1266.03 386.052 1267.41 381.893 1270.88 378.428C1274.35 375.656 1278.51 373.576 1284.05 373.576C1285.44 373.576 1286.83 373.576 1287.52 373.576C1288.21 373.576 1289.6 374.269 1290.99 374.269V379.814C1290.29 379.814 1288.91 379.121 1288.21 379.121C1286.83 379.121 1286.13 379.121 1284.75 379.121C1281.28 379.121 1278.51 379.814 1276.43 381.893C1274.35 383.973 1272.96 387.438 1272.96 391.597V403.379H1290.29V408.924H1272.96V466.451H1266.72V409.617H1266.03Z" fill="black"/>
<path d="M1304.16 404.072H1310.4V417.241C1312.48 413.083 1314.56 410.31 1318.03 407.538C1321.49 404.766 1325.65 403.379 1331.89 403.379V408.924C1329.12 408.924 1326.35 409.617 1323.57 410.31C1320.8 411.003 1318.72 412.39 1316.64 414.469C1314.56 416.548 1313.17 418.627 1312.48 421.4C1311.09 424.172 1311.09 427.638 1311.09 431.796V466.451H1304.85V404.072H1304.16Z" fill="black"/>
<path d="M1370.03 467.837C1365.87 467.837 1361.71 467.144 1358.24 465.758C1354.77 464.371 1351.31 462.292 1348.53 458.827C1345.76 456.054 1343.68 452.589 1342.29 448.43C1340.91 444.272 1340.21 440.113 1340.21 435.262V434.568C1340.21 429.717 1340.91 425.558 1342.29 421.4C1343.68 417.241 1345.76 413.776 1348.53 411.003C1351.31 408.231 1354.77 406.152 1358.24 404.765C1361.71 403.379 1365.87 402.686 1370.03 402.686C1374.19 402.686 1378.35 403.379 1381.81 404.765C1385.28 406.152 1388.75 408.231 1391.52 411.003C1394.29 413.776 1396.37 417.241 1397.76 421.4C1399.15 425.558 1399.84 429.717 1399.84 434.568V435.262C1399.84 440.113 1399.15 444.272 1397.76 448.43C1396.37 452.589 1394.29 456.054 1391.52 458.827C1388.75 461.599 1385.28 463.678 1381.81 465.064C1378.35 467.144 1374.19 467.837 1370.03 467.837ZM1370.03 462.292C1373.49 462.292 1376.27 461.599 1379.73 460.213C1382.51 458.827 1385.28 457.44 1387.36 454.668C1389.44 452.589 1390.83 449.816 1392.21 446.351C1393.6 442.886 1394.29 439.42 1394.29 435.262V434.568C1394.29 430.41 1393.6 426.944 1392.21 423.479C1390.83 420.013 1389.44 417.241 1387.36 415.162C1385.28 413.083 1382.51 411.003 1379.73 409.617C1376.96 408.231 1373.49 407.538 1370.03 407.538C1366.56 407.538 1363.79 408.231 1360.32 409.617C1357.55 411.003 1354.77 412.389 1352.69 415.162C1350.61 417.241 1348.53 420.013 1347.84 423.479C1346.45 426.944 1345.76 430.41 1345.76 434.568V435.262C1345.76 439.42 1346.45 442.886 1347.84 446.351C1349.23 449.816 1350.61 452.589 1352.69 454.668C1354.77 456.747 1357.55 458.827 1360.32 460.213C1363.09 461.599 1366.56 462.292 1370.03 462.292Z" fill="black"/>
<path d="M1415.79 404.072H1422.03V415.855C1422.72 414.469 1423.41 412.39 1424.8 411.003C1426.19 409.617 1427.57 408.231 1429.65 406.845C1431.04 405.459 1433.12 404.766 1435.89 404.072C1437.97 403.379 1440.75 403.379 1442.83 403.379C1447.68 403.379 1451.84 404.766 1455.31 406.845C1458.77 408.924 1460.85 412.39 1462.24 417.934C1464.32 413.776 1467.09 410.31 1471.25 407.538C1475.41 404.766 1479.57 404.072 1484.43 404.072C1487.2 404.072 1489.97 404.766 1492.75 405.459C1495.52 406.152 1497.6 407.538 1499.68 409.617C1501.76 411.696 1503.15 413.776 1503.84 417.241C1505.23 420.707 1505.23 424.172 1505.23 429.024V468.53H1498.99V429.024C1498.99 422.093 1497.6 417.241 1494.83 414.469C1492.05 411.696 1487.89 410.31 1483.04 410.31C1480.96 410.31 1478.19 411.003 1476.11 411.696C1474.03 412.39 1471.95 413.776 1469.87 415.162C1467.79 416.548 1466.4 418.627 1465.71 421.4C1464.32 424.172 1464.32 426.944 1464.32 430.41V468.53H1458.08V429.024C1458.08 422.093 1456.69 417.241 1453.92 414.469C1451.15 411.696 1446.99 410.31 1442.13 410.31C1440.05 410.31 1437.28 411.003 1435.2 411.696C1433.12 412.39 1431.04 413.776 1428.96 415.162C1426.88 416.548 1425.49 418.627 1424.8 421.4C1423.41 424.172 1423.41 426.944 1423.41 430.41V468.53H1417.17V404.072H1415.79Z" fill="black"/>
<path d="M31.2 525.364H40.2133L71.4133 611.307H64.48L54.7733 584.969H15.9467L6.24 611.307H0L31.2 525.364ZM18.0267 579.425H52.6933L35.36 530.908L18.0267 579.425Z" fill="black"/>
<path d="M108.853 612C104.693 612 100.533 611.307 97.0667 609.921C93.6 608.534 90.1334 606.455 87.36 603.683C84.5867 600.91 82.5067 597.445 81.12 593.98C79.7334 589.821 79.04 585.662 79.04 580.811V580.118C79.04 575.266 79.7334 571.108 81.12 566.949C82.5067 562.79 84.5867 559.325 87.36 556.553C90.1334 553.78 93.6 551.701 97.0667 550.315C100.533 548.929 104.693 548.235 108.853 548.235C112.32 548.235 115.093 548.929 117.867 549.622C120.64 550.315 123.413 551.701 126.187 553.78C128.267 555.166 130.347 557.939 132.427 560.018C133.813 562.79 135.2 565.563 135.2 569.028H128.96C128.267 566.256 127.573 564.177 126.88 562.097C125.493 560.018 124.107 558.632 122.72 557.246C120.64 555.86 119.253 555.166 116.48 554.473C114.4 553.78 111.627 553.78 109.547 553.78C106.08 553.78 103.307 554.473 100.533 555.859C97.76 557.246 94.9867 558.632 92.9067 561.404C90.8267 563.484 89.44 566.256 88.0534 569.721C86.6667 573.187 85.9734 576.652 85.9734 580.811V581.504C85.9734 585.662 86.6667 589.128 88.0534 592.593C89.44 596.059 90.8267 598.831 92.9067 600.91C94.9867 602.99 97.76 605.069 100.533 605.762C103.307 607.148 106.773 607.841 109.547 607.841C112.32 607.841 114.4 607.148 117.173 606.455C119.253 605.762 121.333 604.376 123.413 602.99C125.493 601.604 126.88 599.524 128.267 597.445C129.653 595.366 130.347 592.593 131.04 589.821H137.28C136.587 593.286 135.893 596.059 134.507 598.831C133.12 601.604 131.04 604.376 128.96 605.762C126.88 607.841 124.107 609.228 120.64 610.614C115.787 612 112.32 612 108.853 612Z" fill="black"/>
<path d="M176.107 612C171.947 612 167.787 611.307 164.32 609.921C160.853 608.534 157.387 606.455 154.613 603.683C151.84 600.91 149.76 597.445 148.373 593.98C146.987 589.821 146.293 585.662 146.293 580.811V580.118C146.293 575.266 146.987 571.108 148.373 566.949C149.76 562.79 151.84 559.325 154.613 556.553C157.387 553.78 160.853 551.701 164.32 550.315C167.787 548.929 171.947 548.235 176.107 548.235C179.573 548.235 182.347 548.929 185.12 549.622C187.893 550.315 190.667 551.701 193.44 553.78C195.52 555.166 197.6 557.939 199.68 560.018C201.067 562.79 202.453 565.563 202.453 569.028H196.213C195.52 566.256 194.827 564.177 194.133 562.097C192.747 560.018 191.36 558.632 189.973 557.246C187.893 555.86 186.507 555.166 183.733 554.473C181.653 553.78 178.88 553.78 176.8 553.78C173.333 553.78 170.56 554.473 167.787 555.859C165.013 557.246 162.24 558.632 160.16 561.404C158.08 563.484 156.693 566.256 155.307 569.721C153.92 573.187 152.533 575.266 152.533 579.425V580.118C152.533 584.276 153.227 587.742 154.613 591.207C156 594.673 157.387 597.445 159.467 599.524C161.547 601.604 164.32 603.683 167.093 604.376C169.867 605.762 173.333 606.455 176.107 606.455C178.88 606.455 180.96 605.762 183.733 605.069C185.813 604.376 187.893 602.99 189.973 601.604C192.053 600.217 193.44 598.138 194.827 596.059C196.213 593.98 196.907 591.207 197.6 588.435H203.84C203.147 591.9 202.453 594.673 201.067 597.445C199.68 600.217 197.6 602.99 195.52 604.376C193.44 606.455 190.667 607.841 187.2 609.228C183.04 612 179.573 612 176.107 612Z" fill="black"/>
<path d="M243.36 612C238.507 612 234.347 611.307 230.88 609.921C227.413 608.535 223.947 606.455 221.174 603.683C218.4 600.91 216.32 597.445 214.934 593.286C213.547 589.128 212.854 584.969 212.854 580.118V579.425C212.854 574.573 213.547 570.414 214.934 566.256C216.32 562.097 218.4 558.632 221.174 555.86C223.947 553.087 226.72 551.008 230.187 548.929C233.654 547.542 237.814 546.849 241.974 546.849C245.44 546.849 249.6 547.542 252.374 548.929C255.84 550.315 258.613 552.394 261.387 554.473C264.16 557.246 265.547 560.018 267.627 564.177C269.013 568.335 269.707 572.494 269.707 578.038V580.118H219.787C219.787 588.435 221.867 595.366 226.027 599.524C230.187 604.376 235.733 606.455 243.36 606.455C248.907 606.455 253.067 605.069 256.533 602.99C260 600.911 262.08 597.445 263.467 593.286H269.707C268.32 599.524 265.547 603.683 260.693 607.148C255.84 610.614 250.293 612 243.36 612ZM263.467 575.266C263.467 567.642 261.387 562.097 257.227 558.632C253.76 555.166 248.213 553.087 242.667 553.087C239.893 553.087 237.12 553.78 234.347 554.473C231.573 555.166 229.493 557.246 227.413 558.632C225.333 560.711 223.947 562.79 222.56 565.563C221.173 568.335 220.48 571.108 220.48 574.573H263.467V575.266Z" fill="black"/>
<path d="M285.653 548.236H291.893V560.711C292.587 559.325 293.973 557.246 295.36 555.86C296.747 554.473 298.133 553.087 300.213 551.701C302.293 550.315 304.373 549.622 306.453 548.929C308.533 548.236 311.307 547.542 314.08 547.542C317.547 547.542 320.32 548.236 323.093 548.929C325.867 549.622 327.947 551.008 330.027 553.087C332.107 555.167 333.493 557.939 334.88 560.711C336.267 564.177 336.267 567.642 336.267 572.494V611.307H330.027V572.494C330.027 565.563 328.64 560.711 325.173 557.939C322.4 555.166 317.547 553.087 312 553.087C309.227 553.087 306.453 553.78 304.373 554.473C301.6 555.166 299.52 556.553 297.44 558.632C295.36 560.018 293.973 562.097 292.587 564.87C291.2 567.642 290.507 570.415 290.507 573.88V612H284.267V548.236H285.653Z" fill="black"/>
<path d="M373.707 612C368.853 612 364.693 610.614 361.92 607.841C359.147 605.069 357.76 600.91 357.76 596.059V553.78H348.747V548.235H357.76V533.681H364V548.235H381.333V553.78H364.693V595.366C364.693 599.524 365.387 602.297 367.467 603.683C368.853 605.762 371.627 606.455 374.4 606.455C375.787 606.455 377.173 606.455 378.56 605.762C379.947 605.762 381.333 605.069 382.027 605.069V610.614C380.64 611.307 379.947 611.307 378.56 611.307C377.867 612 375.787 612 373.707 612Z" fill="black"/>
<path d="M418.773 612C415.307 612 412.533 611.307 409.76 610.614C406.987 609.921 404.907 608.535 402.827 606.455C400.747 604.376 399.36 602.297 397.973 598.831C396.587 596.059 396.587 591.9 396.587 587.742V547.542H402.827V587.049C402.827 593.98 404.213 598.831 406.987 601.604C409.76 604.376 413.92 605.762 419.467 605.762C422.24 605.762 424.32 605.069 427.093 604.376C429.867 603.683 431.947 602.297 433.333 600.91C435.413 599.524 436.8 597.445 438.187 594.673C439.573 591.9 440.267 589.128 440.267 585.663V547.542H446.507V610.614H440.267V598.831C439.573 600.217 438.187 602.297 436.8 603.683C435.413 605.069 434.027 606.455 431.947 607.841C429.867 609.228 427.787 609.921 425.707 610.614C424.32 612 421.547 612 418.773 612Z" fill="black"/>
<path d="M467.307 548.236H473.547V561.404C475.627 557.246 477.707 554.473 481.173 551.701C484.64 548.929 488.8 547.542 495.04 547.542V553.78C492.267 553.78 489.493 554.473 486.72 555.166C483.947 555.86 481.867 557.246 479.787 559.325C477.707 561.404 476.32 563.484 475.627 566.256C474.24 569.028 474.24 572.494 474.24 576.652V611.307H468V548.236H467.307Z" fill="black"/>
<path d="M532.48 612C527.627 612 523.467 611.307 520 609.921C516.533 608.535 513.067 606.455 510.293 603.683C507.52 600.91 505.44 597.445 504.053 593.286C502.667 589.128 501.973 584.969 501.973 580.118V579.425C501.973 574.573 502.667 570.414 504.053 566.256C505.44 562.097 507.52 558.632 510.293 555.86C513.067 553.087 515.84 551.008 519.307 548.929C522.773 547.542 526.933 546.849 531.093 546.849C534.56 546.849 538.72 547.542 541.493 548.929C544.96 550.315 547.733 552.394 550.507 554.473C553.28 557.246 554.667 560.018 556.747 564.177C558.133 568.335 558.827 572.494 558.827 578.038V580.118H508.907C508.907 588.435 510.987 595.366 515.147 599.524C519.307 604.376 524.853 606.455 532.48 606.455C538.027 606.455 542.187 605.069 545.653 602.99C549.12 600.911 551.2 597.445 552.587 593.286H558.827C557.44 599.524 554.667 603.683 549.813 607.148C545.653 610.614 539.413 612 532.48 612ZM552.587 575.266C552.587 567.642 550.507 562.097 546.347 558.632C542.88 555.166 537.333 553.087 531.787 553.087C529.013 553.087 526.24 553.78 523.467 554.473C520.693 555.166 518.613 557.246 516.533 558.632C514.453 560.711 513.067 562.79 511.68 565.563C510.293 568.335 509.6 571.108 509.6 574.573H552.587V575.266Z" fill="black"/>
<path d="M606.667 525.364H613.6V611.307H606.667V525.364Z" fill="black"/>
<path d="M635.787 548.236H642.027V560.711C642.72 559.325 644.107 557.246 645.493 555.86C646.88 554.473 648.267 553.087 650.347 551.701C652.427 550.315 654.507 549.622 656.587 548.929C658.667 547.542 661.44 547.542 664.213 547.542C667.68 547.542 670.453 548.236 673.227 548.929C676 549.622 678.08 551.008 680.16 553.087C682.24 555.167 683.627 557.939 685.013 560.711C686.4 564.177 686.4 567.642 686.4 572.494V611.307H680.16V572.494C680.16 565.563 678.773 560.711 675.307 557.939C672.533 555.166 667.68 553.087 662.133 553.087C659.36 553.087 656.587 553.78 654.507 554.473C651.733 555.166 649.653 556.553 647.573 558.632C645.493 560.018 644.107 562.097 642.72 564.87C641.333 567.642 640.64 570.415 640.64 573.88V612H634.4V548.236H635.787Z" fill="black"/>
<path d="M723.84 612C718.987 612 714.827 610.614 712.053 607.841C709.28 605.069 707.893 600.91 707.893 596.059V553.78H698.88V548.235H707.893V533.681H714.133V548.235H730.773V553.78H714.133V595.366C714.133 599.524 714.827 602.297 716.907 603.683C718.293 605.762 721.067 606.455 723.84 606.455C725.227 606.455 726.613 606.455 728 605.762C729.387 605.762 730.773 605.069 731.467 605.069V610.614C730.08 611.307 729.387 611.307 728 611.307C728 612 725.92 612 723.84 612Z" fill="black"/>
<path d="M772.373 612C767.52 612 763.36 611.307 759.893 609.921C756.427 608.535 752.96 606.455 750.187 603.683C747.413 600.91 745.333 597.445 743.947 593.286C742.56 589.128 741.867 584.969 741.867 580.118V579.425C741.867 574.573 742.56 570.414 743.947 566.256C745.333 562.097 747.413 558.632 750.187 555.86C752.96 553.087 755.733 551.008 759.2 548.929C762.667 547.542 766.827 546.849 770.987 546.849C774.453 546.849 778.613 547.542 781.387 548.929C784.853 550.315 787.627 552.394 790.4 554.473C793.173 556.553 794.56 560.018 796.64 564.177C798.027 568.335 798.72 572.494 798.72 578.038V580.118H748.8C748.8 588.435 750.88 595.366 755.04 599.524C759.2 604.376 764.747 606.455 772.373 606.455C777.92 606.455 782.08 605.069 785.547 602.99C789.013 600.911 791.093 597.445 792.48 593.286H798.72C797.333 599.524 794.56 603.683 789.707 607.148C784.853 610.614 778.613 612 772.373 612ZM791.787 575.266C791.787 567.642 789.707 562.097 785.547 558.632C782.08 555.166 776.533 553.087 770.987 553.087C768.213 553.087 765.44 553.78 762.667 554.473C759.893 555.166 757.813 557.246 755.733 558.632C753.653 560.711 752.267 562.79 750.88 565.563C749.493 568.335 748.8 571.108 748.8 574.573H791.787V575.266Z" fill="black"/>
<path d="M813.973 548.236H820.213V561.404C822.293 557.246 824.373 554.473 827.84 551.701C831.307 548.929 835.467 547.542 841.707 547.542V553.78C838.933 553.78 836.16 554.473 833.387 555.166C830.613 555.86 828.533 557.246 826.453 559.325C824.373 561.404 822.987 563.484 822.293 566.256C820.907 569.028 820.907 572.494 820.907 576.652V611.307H814.667V548.236H813.973Z" fill="black"/>
<path d="M872.213 612C868.747 612 865.973 611.307 863.893 610.614C861.12 609.921 859.04 608.535 856.96 607.148C854.88 605.762 853.493 603.683 852.8 601.604C851.413 599.524 851.413 596.752 851.413 593.98C851.413 590.514 852.107 587.049 853.493 584.969C854.88 582.197 856.96 580.811 859.733 579.425C862.507 578.038 865.28 576.652 869.44 575.959C872.907 575.266 877.067 575.266 880.533 575.266H893.707V569.721C893.707 563.484 892.32 559.325 890.24 556.553C887.467 553.78 884 552.394 878.453 552.394C873.6 552.394 869.44 553.78 866.667 555.86C863.2 557.939 861.813 561.404 861.12 566.256H854.88C854.88 562.79 856.267 560.018 857.653 557.939C859.04 555.86 861.12 553.78 863.2 552.394C865.28 551.008 868.053 549.622 870.827 548.929C873.6 548.236 876.373 547.542 879.147 547.542C882.613 547.542 885.387 548.236 888.16 548.929C890.933 549.622 893.013 551.008 895.093 553.087C897.173 555.167 898.56 557.246 899.947 560.018C901.333 562.791 901.333 566.256 901.333 570.415V612H895.093V602.297C893.013 605.069 890.24 607.841 886.773 609.921C881.92 611.307 877.76 612 872.213 612ZM872.907 607.148C875.68 607.148 878.453 606.455 881.227 605.762C884 605.069 886.08 603.683 888.16 602.297C890.24 600.911 891.627 598.831 892.32 597.445C893.707 595.366 893.707 593.287 893.707 591.207V580.811H880.533C877.067 580.811 874.293 580.811 871.52 581.504C868.747 582.197 865.973 582.89 863.893 583.583C861.813 584.276 860.427 586.356 859.04 587.742C857.653 589.821 856.96 591.9 856.96 594.673C856.96 598.831 858.347 601.604 860.427 604.376C863.2 605.762 867.36 607.148 872.907 607.148Z" fill="black"/>
<path d="M945.013 612C940.853 612 936.693 611.307 933.227 609.921C929.76 608.534 926.293 606.455 923.52 603.683C920.747 600.91 918.667 597.445 917.28 593.98C915.893 589.821 915.2 585.662 915.2 580.811V580.118C915.2 575.266 915.893 571.108 917.28 566.949C918.667 562.79 920.747 559.325 923.52 556.553C926.293 553.78 929.76 551.701 933.227 550.315C936.693 548.929 940.853 548.235 945.013 548.235C948.48 548.235 951.253 548.929 954.027 549.622C956.8 550.315 959.573 551.701 962.347 553.78C964.427 555.166 966.507 557.939 968.587 560.018C969.973 562.79 971.36 565.563 971.36 569.028H965.12C964.427 566.256 963.733 564.177 963.04 562.097C961.653 560.018 960.267 558.632 958.88 557.246C956.8 555.86 955.413 555.166 952.64 554.473C950.56 553.78 947.787 553.78 945.707 553.78C942.24 553.78 939.467 554.473 936.693 555.859C933.92 557.246 931.147 558.632 929.067 561.404C926.987 563.484 925.6 566.256 924.213 569.721C922.827 573.187 922.133 576.652 922.133 580.811V581.504C922.133 585.662 922.827 589.128 924.213 592.593C925.6 596.059 926.987 598.831 929.067 600.91C931.147 602.99 933.92 605.069 936.693 605.762C939.467 607.148 942.933 607.841 945.707 607.841C948.48 607.841 950.56 607.148 953.333 606.455C955.413 605.762 957.493 604.376 959.573 602.99C961.653 601.604 963.04 599.524 964.427 597.445C965.813 595.366 966.507 592.593 967.2 589.821H973.44C972.747 593.286 972.053 596.059 970.667 598.831C969.28 601.604 967.2 604.376 965.12 605.762C963.04 607.841 960.267 609.228 956.8 610.614C951.947 612 948.48 612 945.013 612Z" fill="black"/>
<path d="M1004.64 612C999.787 612 995.627 610.614 992.853 607.841C990.08 605.069 988.694 600.91 988.694 596.059V553.78H979.68V548.235H988.694V533.681H994.933V548.235H1011.57V553.78H994.933V595.366C994.933 599.524 995.627 602.297 997.707 603.683C999.093 605.762 1001.87 606.455 1004.64 606.455C1006.03 606.455 1007.41 606.455 1008.8 605.762C1010.19 605.762 1011.57 605.069 1012.27 605.069V610.614C1010.88 611.307 1010.19 611.307 1008.8 611.307C1008.11 612 1006.72 612 1004.64 612Z" fill="black"/>
<path d="M1031.68 535.067C1030.29 535.067 1029.6 534.374 1028.21 533.681C1027.52 532.988 1026.83 531.601 1026.83 530.215C1026.83 528.829 1027.52 528.136 1028.21 526.75C1028.91 526.057 1030.29 525.364 1031.68 525.364C1033.07 525.364 1033.76 526.057 1035.15 526.75C1035.84 527.443 1036.53 528.829 1036.53 530.215C1036.53 531.601 1035.84 532.294 1035.15 533.681C1034.45 535.067 1033.07 535.067 1031.68 535.067ZM1028.21 548.236H1034.45V611.307H1028.21V548.236Z" fill="black"/>
<path d="M1048.32 548.235H1055.25L1076.75 605.069L1098.24 548.235H1104.48L1080.91 611.307H1072.59L1048.32 548.235Z" fill="black"/>
<path d="M1141.92 612C1137.07 612 1132.91 611.307 1129.44 609.921C1125.97 608.535 1122.51 606.455 1119.73 603.683C1116.96 600.91 1114.88 597.445 1113.49 593.286C1112.11 589.128 1111.41 584.969 1111.41 580.118V579.425C1111.41 574.573 1112.11 570.414 1113.49 566.256C1114.88 562.097 1116.96 558.632 1119.73 555.86C1122.51 553.087 1125.28 551.008 1128.75 548.929C1132.21 547.542 1136.37 546.849 1140.53 546.849C1144 546.849 1148.16 547.542 1150.93 548.929C1154.4 550.315 1157.17 552.394 1159.95 554.473C1162.72 557.246 1164.11 560.018 1166.19 564.177C1167.57 568.335 1168.27 572.494 1168.27 578.038V580.118H1118.35C1118.35 588.435 1120.43 595.366 1124.59 599.524C1128.75 604.376 1134.29 606.455 1141.92 606.455C1147.47 606.455 1151.63 605.069 1155.09 602.99C1158.56 600.911 1160.64 597.445 1162.03 593.286H1168.27C1166.88 599.524 1164.11 603.683 1159.25 607.148C1154.4 610.614 1148.16 612 1141.92 612ZM1161.33 575.266C1161.33 567.642 1159.25 562.097 1155.09 558.632C1151.63 555.166 1146.08 553.087 1140.53 553.087C1137.76 553.087 1134.99 553.78 1132.21 554.473C1129.44 555.166 1127.36 557.246 1125.28 558.632C1123.2 560.711 1121.81 562.79 1120.43 565.563C1119.04 568.335 1118.35 571.108 1118.35 574.573H1161.33V575.266Z" fill="black"/>
</svg>
