<svg width="715" height="462" viewBox="0 0 715 462" fill="none" xmlns="http://www.w3.org/2000/svg">
<path d="M0.990723 395.463H19.5207C22.4853 395.446 25.4403 395.8 28.3166 396.518C30.9337 397.156 33.3962 398.313 35.5585 399.919C37.6389 401.459 39.3265 403.468 40.4842 405.783C41.7902 408.527 42.4234 411.542 42.3313 414.579V414.96C42.4101 417.996 41.7775 421.008 40.4842 423.756C39.3331 426.075 37.6443 428.085 35.5585 429.619C33.3943 431.216 30.9317 432.363 28.3166 432.991C25.4403 433.709 22.4853 434.064 19.5207 434.047H8.93633V460.434H0.990723V395.463ZM20.0485 427.86C23.8953 428.132 27.704 426.95 30.7208 424.547C31.9867 423.296 32.9691 421.787 33.6014 420.123C34.2337 418.458 34.5012 416.678 34.3857 414.901V414.55C34.5711 412.725 34.3195 410.883 33.6516 409.175C32.9837 407.467 31.9188 405.942 30.5449 404.728C27.4579 402.635 23.773 401.606 20.0485 401.796H8.93633V427.802L20.0485 427.86Z" fill="white"/>
<path d="M63.7638 461.548C61.6625 461.555 59.5703 461.269 57.5481 460.698C55.7029 460.221 53.9827 459.351 52.5051 458.147C51.0497 456.98 49.8938 455.482 49.1334 453.778C48.2675 451.792 47.8472 449.641 47.902 447.475C47.8123 445.015 48.5108 442.591 49.8957 440.555C51.2772 438.621 53.1086 437.051 55.2318 435.982C57.642 434.769 60.2221 433.929 62.8843 433.49C65.7869 432.965 68.7305 432.7 71.6801 432.698H78.5116V429.268C78.7807 426.33 77.9327 423.399 76.1367 421.058C75.0692 420.134 73.8247 419.436 72.4788 419.007C71.133 418.579 69.7141 418.429 68.3084 418.566C61.7408 418.566 58.0856 421.391 57.3429 427.039H49.8957C50.0492 424.608 50.7509 422.242 51.9481 420.12C53.0157 418.279 54.4776 416.697 56.2287 415.488C58.0158 414.295 60.0016 413.431 62.0926 412.937C64.2946 412.43 66.5471 412.174 68.8068 412.175C71.0181 412.174 73.2221 412.429 75.3744 412.937C77.4187 413.414 79.3252 414.358 80.9451 415.693C82.625 417.112 83.9418 418.911 84.786 420.941C85.8332 423.578 86.3224 426.403 86.2227 429.238V460.698H78.6289V454.834C77.012 456.977 74.9259 458.722 72.5304 459.935C69.7735 461.148 66.7717 461.7 63.7638 461.548ZM64.4968 455.508C66.39 455.518 68.2751 455.261 70.0969 454.746C71.7206 454.281 73.2424 453.516 74.5828 452.488C75.8111 451.514 76.8118 450.283 77.5147 448.882C78.2643 447.371 78.6365 445.701 78.5996 444.015V438.151H72.0613C69.8521 438.129 67.6451 438.295 65.4644 438.65C63.6262 438.909 61.8374 439.443 60.1575 440.233C58.7679 440.891 57.575 441.902 56.6978 443.165C55.8435 444.48 55.4136 446.025 55.4664 447.592C55.3583 449.729 56.0716 451.827 57.4601 453.456C58.4353 454.253 59.5608 454.845 60.7698 455.198C61.9787 455.55 63.2462 455.656 64.4968 455.508Z" fill="white"/>
<path d="M99.8857 412.996H107.48V421.557C108.187 420.246 109.022 419.009 109.972 417.863C110.911 416.735 112.007 415.748 113.226 414.931C114.545 414.063 115.989 413.4 117.507 412.966C119.348 412.442 121.251 412.166 123.165 412.145V419.27C120.981 419.355 118.81 419.659 116.686 420.179C114.851 420.588 113.142 421.433 111.702 422.641C110.285 423.887 109.206 425.471 108.564 427.245C107.772 429.574 107.404 432.027 107.48 434.486V460.668H99.8857V412.996Z" fill="white"/>
<path d="M147.97 461.343C146.21 461.512 144.433 461.305 142.76 460.733C141.086 460.162 139.554 459.24 138.265 458.029C136.077 455.51 134.944 452.245 135.099 448.911V419.592H128.267V413.201H135.099V402.353H142.692V413.201H153.804V419.592H142.692V448.237C142.692 452.869 144.657 455.156 148.556 455.156C149.627 455.168 150.697 455.08 151.752 454.892C152.651 454.724 153.534 454.479 154.391 454.159V460.551C153.534 460.872 152.651 461.117 151.752 461.284C150.495 461.41 149.23 461.43 147.97 461.343Z" fill="white"/>
<path d="M206.375 461.548C203.144 461.582 199.941 460.953 196.963 459.701C194.186 458.534 191.673 456.819 189.574 454.658C187.483 452.421 185.84 449.803 184.737 446.947C183.57 443.856 182.983 440.576 183.007 437.272V436.539C182.959 433.17 183.566 429.824 184.795 426.688C185.898 423.824 187.551 421.204 189.662 418.977C191.754 416.837 194.271 415.159 197.051 414.051C203.079 411.667 209.788 411.667 215.815 414.051C218.61 415.178 221.144 416.864 223.263 419.006C225.375 421.221 227.029 423.831 228.13 426.688C229.346 429.828 229.953 433.171 229.918 436.539V437.272C229.947 440.648 229.34 444 228.13 447.152C227.046 450.039 225.368 452.666 223.204 454.863C221.082 457.008 218.549 458.703 215.757 459.847C212.771 461.025 209.583 461.603 206.375 461.548ZM206.375 455.156C208.6 455.18 210.807 454.74 212.854 453.866C214.816 453.072 216.564 451.826 217.956 450.231C219.292 448.553 220.288 446.631 220.888 444.572C221.64 442.213 222.007 439.748 221.973 437.272V436.627C222.008 434.103 221.642 431.589 220.888 429.18C220.297 427.099 219.301 425.156 217.956 423.463C216.563 421.903 214.826 420.688 212.883 419.915C210.856 419.045 208.668 418.616 206.462 418.654C204.238 418.619 202.031 419.048 199.983 419.915C198.08 420.726 196.393 421.971 195.057 423.55C193.658 425.224 192.602 427.157 191.949 429.238C191.192 431.627 190.826 434.122 190.864 436.627V437.36C190.62 442.056 192.089 446.682 194.999 450.377C196.436 451.97 198.211 453.221 200.195 454.038C202.179 454.854 204.32 455.217 206.462 455.098L206.375 455.156Z" fill="white"/>
<path d="M242.144 419.387H235.284V412.996H242.144V405.255C241.88 401.182 243.145 397.157 245.692 393.968C247.068 392.558 248.738 391.467 250.582 390.773C252.426 390.079 254.4 389.798 256.364 389.951C257.347 389.929 258.33 390.008 259.296 390.185C260.188 390.362 261.068 390.587 261.935 390.86V397.339C261.169 396.992 260.361 396.745 259.531 396.606C258.564 396.421 257.583 396.322 256.599 396.313C255.585 396.216 254.562 396.374 253.625 396.774C252.688 397.173 251.866 397.801 251.234 398.6C250.116 400.345 249.563 402.393 249.65 404.464V412.996H261.378V419.387H249.65V460.698H242.144V419.387Z" fill="white"/>
<path d="M308.465 395.463H327.728L348.897 460.698H333.475L328.989 446.302H305.357L300.901 460.785H287.032L308.465 395.463ZM308.465 435.718H325.705L317.144 407.513L308.465 435.718Z" fill="white"/>
<path d="M373.35 461.724C370.036 461.756 366.742 461.211 363.615 460.111C360.713 459.116 358.055 457.518 355.816 455.42C353.585 453.265 351.828 450.669 350.656 447.797C349.372 444.501 348.745 440.985 348.809 437.448V436.715C348.743 433.172 349.391 429.652 350.715 426.365C351.873 423.425 353.643 420.764 355.907 418.56C358.172 416.357 360.879 414.66 363.85 413.582C366.92 412.454 370.167 411.888 373.437 411.911C376.124 411.896 378.803 412.211 381.412 412.849C383.917 413.457 386.284 414.531 388.391 416.015C390.487 417.562 392.202 419.568 393.404 421.879C394.862 424.594 395.703 427.598 395.867 430.675H383.377C383.181 428.351 382.138 426.181 380.445 424.577C378.548 423.134 376.198 422.417 373.819 422.554C372.245 422.491 370.678 422.792 369.239 423.433C367.8 424.073 366.528 425.037 365.521 426.248C363.268 429.265 362.166 432.987 362.413 436.744V437.477C362.096 441.315 363.134 445.143 365.345 448.296C367.314 450.383 369.98 451.676 372.839 451.93C375.697 452.184 378.549 451.381 380.855 449.674C381.865 448.831 382.685 447.783 383.261 446.601C383.837 445.419 384.156 444.128 384.198 442.813H396.16C396.011 445.511 395.355 448.157 394.225 450.612C393.153 452.873 391.602 454.873 389.681 456.476C387.606 458.234 385.219 459.587 382.644 460.463C379.637 461.393 376.496 461.819 373.35 461.724Z" fill="white"/>
<path d="M422.694 461.724C419.39 461.756 416.106 461.211 412.99 460.111C410.081 459.131 407.42 457.53 405.191 455.42C402.941 453.281 401.18 450.681 400.03 447.797C398.722 444.507 398.084 440.988 398.154 437.448V436.715C398.104 433.173 398.752 429.657 400.06 426.365C401.266 423.398 403.073 420.713 405.366 418.478C407.626 416.344 410.287 414.679 413.195 413.582C416.264 412.454 419.512 411.888 422.782 411.911C425.479 411.896 428.167 412.211 430.787 412.849C433.289 413.461 435.656 414.535 437.765 416.015C439.845 417.579 441.557 419.581 442.778 421.879C444.208 424.605 445.047 427.603 445.241 430.675H432.722C432.54 428.347 431.494 426.172 429.79 424.577C427.902 423.138 425.562 422.421 423.193 422.554C421.615 422.491 420.043 422.792 418.6 423.432C417.156 424.073 415.879 425.036 414.866 426.248C412.635 429.274 411.544 432.992 411.787 436.744V437.477C411.455 441.316 412.494 445.149 414.719 448.296C415.782 449.522 417.111 450.487 418.606 451.117C420.101 451.748 421.72 452.026 423.339 451.931C425.829 452.003 428.265 451.205 430.229 449.674C431.229 448.824 432.041 447.775 432.611 446.594C433.182 445.412 433.499 444.124 433.543 442.813H445.505C445.365 445.509 444.719 448.155 443.599 450.612C442.517 452.874 440.956 454.875 439.025 456.476C436.966 458.24 434.587 459.594 432.018 460.463C429 461.391 425.85 461.817 422.694 461.724Z" fill="white"/>
<path d="M472.332 461.724C468.949 461.754 465.586 461.198 462.393 460.082C459.463 459.038 456.786 457.39 454.535 455.244C452.257 453.123 450.466 450.532 449.287 447.651C447.993 444.407 447.355 440.939 447.411 437.448V436.715C447.366 433.224 448.003 429.758 449.287 426.512C450.476 423.559 452.263 420.884 454.535 418.654C456.769 416.495 459.41 414.8 462.305 413.67C465.389 412.474 468.673 411.877 471.98 411.911C474.969 411.9 477.94 412.375 480.776 413.318C483.53 414.219 486.059 415.699 488.194 417.657C490.415 419.763 492.155 422.323 493.296 425.163C494.638 428.669 495.286 432.404 495.202 436.158V439.822H460.839C460.776 443.271 461.987 446.622 464.24 449.234C466.367 451.046 469.003 452.154 471.786 452.406C474.569 452.658 477.362 452.041 479.779 450.641C481.289 449.418 482.326 447.708 482.711 445.803H495.202C494.924 448.172 494.152 450.456 492.935 452.507C491.717 454.557 490.082 456.329 488.136 457.707C483.415 460.66 477.89 462.065 472.332 461.724ZM482.36 431.642C482.403 428.678 481.361 425.799 479.428 423.55C478.427 422.654 477.259 421.964 475.991 421.522C474.723 421.079 473.38 420.891 472.039 420.97C470.678 420.934 469.323 421.175 468.058 421.679C466.792 422.183 465.643 422.939 464.68 423.902C462.639 426.008 461.351 428.729 461.015 431.642H482.36Z" fill="white"/>
<path d="M500.42 412.996H513.673V420.56C514.996 418.069 516.946 415.967 519.332 414.462C522.292 412.659 525.72 411.772 529.183 411.911C531.391 411.879 533.586 412.247 535.663 412.996C537.579 413.711 539.319 414.831 540.764 416.279C542.264 417.978 543.383 419.977 544.048 422.143C544.886 424.807 545.282 427.59 545.221 430.382V460.756H531.998V432.317C532.201 429.735 531.496 427.163 530.004 425.046C529.174 424.214 528.171 423.576 527.066 423.175C525.962 422.775 524.782 422.623 523.612 422.729C520.993 422.637 518.44 423.562 516.488 425.31C515.467 426.347 514.678 427.589 514.173 428.953C513.667 430.318 513.457 431.774 513.556 433.226V460.756H500.303L500.42 412.996Z" fill="white"/>
<path d="M570.495 461.636C566.31 461.935 562.178 460.565 559.001 457.824C557.615 456.315 556.553 454.537 555.882 452.6C555.211 450.663 554.946 448.609 555.102 446.566V422.378H548.974V412.996H555.131V402.675H568.266V412.996H578.294V422.378H568.266V445.393C568.138 446.919 568.612 448.434 569.586 449.615C570.104 450.124 570.726 450.516 571.409 450.763C572.092 451.011 572.82 451.11 573.544 451.052C574.448 451.053 575.351 450.974 576.241 450.817C577.039 450.676 577.817 450.44 578.558 450.113V460.346C577.649 460.639 576.535 460.932 575.186 461.225C573.639 461.516 572.068 461.653 570.495 461.636Z" fill="white"/>
<path d="M599.902 461.724C597.708 461.743 595.526 461.386 593.452 460.668C591.51 459.983 589.747 458.87 588.292 457.414C586.75 455.828 585.587 453.913 584.89 451.814C584.021 449.217 583.604 446.489 583.659 443.751V412.996H596.794V441.904C596.599 444.471 597.338 447.022 598.876 449.087C599.67 449.922 600.639 450.571 601.714 450.987C602.789 451.402 603.942 451.575 605.092 451.491C606.465 451.568 607.839 451.344 609.118 450.836C610.396 450.327 611.549 449.546 612.495 448.547C613.441 447.548 614.158 446.355 614.596 445.051C615.034 443.747 615.182 442.363 615.031 440.995V412.996H628.166V460.698H615.031V453.221C613.777 455.706 611.872 457.804 609.519 459.29C606.619 461.021 603.276 461.867 599.902 461.724Z" fill="white"/>
<path d="M636.376 412.996H649.599V422.114C650.858 419.195 652.884 416.672 655.463 414.813C658.303 413.058 661.595 412.171 664.933 412.263V424.577C660.952 424.286 656.976 425.206 653.528 427.215C652.109 428.349 650.998 429.821 650.296 431.497C649.594 433.172 649.324 434.996 649.511 436.803V460.698H636.288L636.376 412.996Z" fill="white"/>
<path d="M691.32 461.724C687.928 461.754 684.556 461.198 681.352 460.082C678.431 459.038 675.764 457.389 673.524 455.244C671.235 453.131 669.443 450.538 668.275 447.651C667.025 444.419 666.437 440.969 666.545 437.506V436.773C666.49 433.282 667.127 429.814 668.422 426.57C669.601 423.612 671.389 420.935 673.67 418.713C675.896 416.556 678.526 414.862 681.411 413.729C684.497 412.541 687.779 411.944 691.086 411.969C694.075 411.959 697.045 412.434 699.882 413.377C702.7 414.29 705.281 415.814 707.44 417.842C709.6 419.869 711.284 422.349 712.372 425.104C713.739 428.605 714.397 432.342 714.307 436.099V439.764H679.827C679.776 443.151 680.953 446.442 683.14 449.029C685.263 450.838 687.894 451.945 690.672 452.197C693.449 452.449 696.237 451.834 698.65 450.436C700.18 449.23 701.221 447.512 701.582 445.598H714.102C713.819 447.969 713.042 450.253 711.819 452.304C710.597 454.355 708.957 456.126 707.006 457.502C702.348 460.514 696.862 461.991 691.32 461.724ZM701.348 431.642C701.392 428.678 700.349 425.799 698.416 423.55C697.418 422.65 696.251 421.958 694.982 421.515C693.713 421.072 692.369 420.886 691.027 420.97C689.67 420.934 688.32 421.176 687.06 421.68C685.799 422.184 684.655 422.94 683.697 423.902C681.627 426.04 680.354 428.825 680.091 431.789L701.348 431.642Z" fill="white"/>
<path d="M61.0666 300.939H0.990723V0.654175H61.0666V300.939ZM436.357 128.279V293.433H496.492V8.15982H451.457L353.852 143.291L256.247 8.15982H211.212V293.433H271.259V128.279L353.852 233.388L436.357 128.279ZM654.143 210.871C654.143 308.444 594.097 323.485 594.097 323.485V346.002C594.097 346.002 714.307 346.002 714.307 210.871V0.654175H654.143V210.871Z" fill="white"/>
</svg>
