<svg width="661" height="453" viewBox="0 0 661 453" fill="none" xmlns="http://www.w3.org/2000/svg">
<path d="M605.55 451.293H618.13V399.851L642.125 451.293H660.296V389.376H647.949V438.258L624.653 389.376H605.55V451.293Z" fill="white"/>
<path d="M582.254 396.359C576.197 389.609 567.111 387.98 560.588 387.98C538.457 387.98 531.002 404.506 531.002 420.8C531.002 426.387 531.934 436.629 538.69 443.844C544.514 449.431 552.434 452.457 560.588 452.224C565.713 452.224 575.731 451.06 582.487 443.379C587.612 437.792 590.174 428.249 590.174 419.404C590.407 411.024 587.612 402.877 582.254 396.359ZM572.236 436.861C569.674 440.818 565.247 442.913 560.821 442.681C556.395 443.146 552.201 441.284 549.639 437.792C545.911 432.904 544.98 426.387 544.98 420.567C544.98 413.584 545.911 407.067 549.406 402.644C552.201 399.153 556.395 397.29 560.821 397.523C567.111 397.523 572.236 400.782 574.799 408.463C575.964 411.955 576.43 415.679 576.43 419.404C576.43 429.18 574.1 433.835 572.236 436.861Z" fill="white"/>
<path d="M515.16 389.376H501.881V451.293H515.16V389.376Z" fill="white"/>
<path d="M434.322 431.042C434.322 437.094 434.555 452.224 458.317 452.224C475.324 452.224 484.642 443.146 484.642 432.206C484.642 420.102 474.159 417.309 463.442 414.748C454.59 412.421 449.931 411.489 449.931 405.67C449.931 400.549 453.891 397.29 460.181 397.29C465.306 396.825 469.732 400.549 470.198 405.67C470.198 405.903 470.198 406.368 470.198 406.601H483.011C483.244 402.411 482.079 398.454 479.517 395.195C474.858 389.376 467.17 387.98 460.88 387.98C443.641 387.98 436.419 397.058 436.419 407.067C436.419 417.774 444.572 422.197 459.249 425.688C467.17 427.551 470.897 428.482 470.897 434.068C470.897 439.655 466.238 442.681 459.249 442.681C447.834 442.681 448.067 433.835 448.067 431.042H434.322Z" fill="white"/>
<path d="M416.85 389.376H403.571V451.293H416.85V389.376Z" fill="white"/>
<path d="M327.625 389.376L350.455 451.293H365.132L387.962 389.376H374.917L358.376 438.258L342.302 389.376H327.625Z" fill="white"/>
<path d="M273.577 451.293H313.181V443.845H281.964V423.128H310.852V415.912H281.964V396.592H312.482V389.376H273.577V451.293Z" fill="white"/>
<path d="M210.211 451.293H218.598V418.473L247.253 451.293H259.367L228.616 417.076L256.338 389.376H244.457L218.598 416.61V389.376H210.211V451.293Z" fill="white"/>
<path d="M193.438 406.136C192.273 391.937 179.926 388.445 171.074 388.445C148.942 388.445 143.817 407.998 143.817 421.033C143.817 433.137 148.01 452.224 169.909 452.224C180.625 452.224 191.807 447.103 193.205 434.999H183.887C183.654 437.327 182.489 439.655 180.858 441.517C178.062 444.077 174.568 445.474 170.841 445.241C156.63 445.241 153.368 432.671 153.368 421.033C153.368 410.791 155.931 395.428 171.074 395.428C182.955 395.428 184.12 404.041 184.585 406.136H193.438Z" fill="white"/>
<path d="M112.134 389.376H102.815L76.7234 451.293H85.576L92.3319 435.232H121.219L127.975 451.293H137.294L112.134 389.376ZM95.3605 428.249L107.475 397.756L118.89 428.249H95.3605Z" fill="white"/>
<path d="M0.311523 451.293H8.6982V395.894L28.2671 451.293H36.4208L56.6886 395.661V451.293H65.3083V389.376H51.0975L33.1594 440.586L15.4541 389.376H0.311523V451.293Z" fill="white"/>
<path d="M92.0991 0.882324H0.311523V177.09H92.0991V0.882324Z" fill="white"/>
<path d="M319.471 0.882324H227.684V177.09H319.471V0.882324Z" fill="white"/>
<path d="M433.157 0.882324H341.37V177.09H433.157V0.882324Z" fill="white"/>
<path d="M660.529 0.882324H568.742V177.09H660.529V0.882324Z" fill="white"/>
<path d="M546.843 0.882324H455.056V177.09H546.843V0.882324Z" fill="white"/>
<path d="M546.843 198.97H455.056V283.931H546.843V198.97Z" fill="white"/>
</svg>
