<svg width="1041" height="208" viewBox="0 0 1041 208" fill="none" xmlns="http://www.w3.org/2000/svg">
<path d="M0.813477 204.077H35.9508V122.254H137.512V90.0057H36.4321V35.6172H150.989V3.3692H0.813477V204.077ZM216.451 206.965C236.667 206.965 253.513 200.708 265.065 189.156C276.617 177.605 283.837 159.796 283.837 135.73V3.3692H247.737V135.249C247.737 161.721 234.741 174.717 215.969 174.717C199.123 174.717 187.089 166.053 175.537 151.133L152.433 174.717C165.429 193.007 185.645 206.965 216.451 206.965ZM453.267 207.928C514.878 207.928 558.679 160.759 558.679 103.964V103.482C558.679 46.6874 515.84 0 453.748 0C392.137 0 348.336 47.1687 348.336 103.964V104.445C348.336 160.759 391.656 207.928 453.267 207.928ZM453.748 175.198C413.797 175.198 385.399 142.95 385.399 103.964V103.482C385.399 64.496 413.316 32.7293 453.267 32.7293C493.217 32.7293 521.616 64.9773 521.616 103.964V104.445C521.616 143.431 493.699 175.198 453.748 175.198ZM626.547 204.077H661.684V134.287H705.485H705.967L755.544 204.077H797.42L743.029 128.029C770.947 119.847 791.163 100.113 791.163 67.3839V66.9026C791.163 49.5753 784.906 34.6546 774.316 23.5844C761.32 11.0702 741.586 3.3692 716.075 3.3692H626.547V204.077ZM661.684 103.001V35.6172H713.187C739.179 35.6172 755.063 47.1687 755.063 68.8279V69.3092C755.063 89.5243 739.179 103.001 713.668 103.001H661.684ZM859.031 204.077H934.119C997.173 204.077 1040.97 160.277 1040.97 103.482V103.001C1040.97 46.6874 997.173 3.3692 934.119 3.3692H859.031V204.077ZM894.168 172.31V35.6172H933.638C975.995 35.6172 1003.43 64.496 1003.43 103.964V104.445C1003.43 143.913 975.995 172.31 933.638 172.31H894.168Z" fill="white"/>
</svg>
