<svg width="1500" height="300" viewBox="0 0 1500 300" fill="none" xmlns="http://www.w3.org/2000/svg">
<path d="M0.933105 293.871H51.5464V176.045H197.84V129.608H52.2398V51.2888H217.253V4.85164H0.933105V293.871ZM311.546 298.029C340.666 298.029 364.933 289.019 381.573 272.385C398.213 255.751 408.613 230.106 408.613 195.452V4.85164H356.613V194.759C356.613 232.879 337.893 251.592 310.853 251.592C286.586 251.592 269.253 239.117 252.613 217.631L219.333 251.592C238.053 277.93 267.173 298.029 311.546 298.029ZM652.666 299.416C741.413 299.416 804.506 231.493 804.506 149.708V149.015C804.506 67.2299 742.8 0 653.36 0C564.613 0 501.52 67.923 501.52 149.708V150.401C501.52 231.493 563.92 299.416 652.666 299.416ZM653.36 252.285C595.813 252.285 554.906 205.848 554.906 149.708V149.015C554.906 92.8743 595.12 47.1302 652.666 47.1302C710.213 47.1302 751.12 93.5674 751.12 149.708V150.401C751.12 206.541 710.906 252.285 653.36 252.285ZM902.266 293.871H952.88V193.373H1015.97H1016.67L1088.08 293.871H1148.4L1070.05 184.362C1110.27 172.58 1139.39 144.163 1139.39 97.0328V96.3397C1139.39 71.3884 1130.37 49.9026 1115.12 33.9615C1096.4 15.9411 1067.97 4.85164 1031.23 4.85164H902.266V293.871ZM952.88 148.322V51.2888H1027.07C1064.51 51.2888 1087.39 67.923 1087.39 99.1121V99.8052C1087.39 128.915 1064.51 148.322 1027.76 148.322H952.88ZM1237.15 293.871H1345.31C1436.13 293.871 1499.23 230.8 1499.23 149.015V148.322C1499.23 67.2299 1436.13 4.85164 1345.31 4.85164H1237.15V293.871ZM1287.76 248.127V51.2888H1344.61C1405.63 51.2888 1445.15 92.8743 1445.15 149.708V150.401C1445.15 207.234 1405.63 248.127 1344.61 248.127H1287.76Z" fill="black"/>
</svg>
